<svg width="472" height="354" viewBox="0 0 472 354" fill="none" xmlns="http://www.w3.org/2000/svg">
<g filter="url(#filter0_d_39_674)">
<rect x="110" y="82" width="252.273" height="135" rx="20.4545" fill="white"/>
</g>
<path d="M176.311 147.719L207.237 147.57C207.557 147.569 207.807 147.291 207.776 146.973C206.137 129.865 198.804 117.082 176.202 115.562C175.888 115.541 175.615 115.792 175.616 116.108L175.764 147.177C175.765 147.478 176.01 147.72 176.311 147.719Z" fill="#4A9274"/>
<path d="M170.972 185.426C188.972 185.426 203.599 170.921 203.89 152.917C203.895 152.616 203.65 152.369 203.349 152.369H171.518C171.216 152.369 170.972 152.125 170.972 151.824L170.972 119.858C170.972 119.557 170.726 119.312 170.425 119.317C152.495 119.61 138.05 134.296 138.05 152.369C138.05 170.626 152.79 185.426 170.972 185.426Z" fill="#03393C"/>
<path d="M225.473 175.126H226.553C226.553 176.042 227.24 176.615 228.353 176.615C229.58 176.615 230.3 176.091 230.3 175.24C230.3 174.586 229.973 174.209 229.04 173.98L227.682 173.637C226.308 173.293 225.637 172.573 225.637 171.493C225.637 170.102 226.798 169.219 228.5 169.219C230.169 169.219 231.249 170.135 231.298 171.608H230.202C230.169 170.691 229.531 170.151 228.468 170.151C227.355 170.151 226.733 170.626 226.733 171.477C226.733 172.082 227.158 172.508 228.026 172.72L229.384 173.064C230.758 173.408 231.38 174.046 231.38 175.191C231.38 176.615 230.169 177.548 228.369 177.548C226.586 177.548 225.473 176.599 225.473 175.126ZM238.803 169.431H239.932V177.351H238.95L238.803 176.01C238.361 176.926 237.265 177.548 236.021 177.548C234.155 177.548 233.141 176.271 233.141 174.34V169.415H234.286V173.98C234.286 175.862 235.121 176.533 236.381 176.533C237.903 176.533 238.803 175.519 238.803 173.637V169.431ZM241.568 173.408C241.568 170.92 243.09 169.219 245.397 169.219C247.23 169.219 248.571 170.282 248.882 171.919H247.753C247.459 170.822 246.51 170.217 245.413 170.217C243.81 170.217 242.68 171.444 242.68 173.391C242.68 175.273 243.728 176.533 245.331 176.533C246.51 176.533 247.459 175.879 247.77 174.864H248.915C248.539 176.484 247.131 177.548 245.331 177.548C243.09 177.548 241.568 175.895 241.568 173.408ZM250.069 173.408C250.069 170.92 251.591 169.219 253.898 169.219C255.731 169.219 257.073 170.282 257.384 171.919H256.255C255.96 170.822 255.011 170.217 253.915 170.217C252.311 170.217 251.182 171.444 251.182 173.391C251.182 175.273 252.229 176.533 253.833 176.533C255.011 176.533 255.96 175.879 256.271 174.864H257.416C257.04 176.484 255.633 177.548 253.833 177.548C251.591 177.548 250.069 175.895 250.069 173.408ZM262.449 177.548C260.125 177.548 258.571 175.879 258.571 173.391C258.571 170.92 260.109 169.219 262.367 169.219C264.511 169.219 265.967 170.74 265.967 172.982V173.539H259.667C259.749 175.469 260.763 176.582 262.465 176.582C263.758 176.582 264.592 176.026 264.887 174.979H265.967C265.541 176.648 264.314 177.548 262.449 177.548ZM262.367 170.184C260.878 170.184 259.896 171.166 259.7 172.72H264.838C264.838 171.199 263.856 170.184 262.367 170.184ZM267.101 175.126H268.181C268.181 176.042 268.868 176.615 269.981 176.615C271.208 176.615 271.928 176.091 271.928 175.24C271.928 174.586 271.601 174.209 270.668 173.98L269.31 173.637C267.936 173.293 267.265 172.573 267.265 171.493C267.265 170.102 268.427 169.219 270.128 169.219C271.798 169.219 272.878 170.135 272.927 171.608H271.83C271.798 170.691 271.159 170.151 270.096 170.151C268.983 170.151 268.361 170.626 268.361 171.477C268.361 172.082 268.787 172.508 269.654 172.72L271.012 173.064C272.387 173.408 273.008 174.046 273.008 175.191C273.008 176.615 271.798 177.548 269.998 177.548C268.214 177.548 267.101 176.599 267.101 175.126ZM274.196 175.126H275.276C275.276 176.042 275.964 176.615 277.076 176.615C278.304 176.615 279.024 176.091 279.024 175.24C279.024 174.586 278.696 174.209 277.764 173.98L276.405 173.637C275.031 173.293 274.36 172.573 274.36 171.493C274.36 170.102 275.522 169.219 277.224 169.219C278.893 169.219 279.973 170.135 280.022 171.608H278.925C278.893 170.691 278.255 170.151 277.191 170.151C276.078 170.151 275.456 170.626 275.456 171.477C275.456 172.082 275.882 172.508 276.749 172.72L278.107 173.064C279.482 173.408 280.104 174.046 280.104 175.191C280.104 176.615 278.893 177.548 277.093 177.548C275.309 177.548 274.196 176.599 274.196 175.126ZM290.641 169.333V170.348H290.019C288.563 170.348 287.63 171.329 287.63 172.835V177.351H286.501V169.431H287.564L287.646 170.659C287.957 169.808 288.792 169.251 289.904 169.251C290.15 169.251 290.363 169.268 290.641 169.333ZM294.097 177.548C292.411 177.548 291.413 176.599 291.413 175.208C291.413 173.751 292.526 172.835 294.375 172.688L296.993 172.475V172.213C296.993 170.659 296.06 170.168 294.899 170.168C293.524 170.168 292.706 170.789 292.706 171.853H291.675C291.675 170.249 292.984 169.219 294.931 169.219C296.764 169.219 298.106 170.135 298.106 172.229V177.351H297.157L297.009 175.96C296.519 176.959 295.439 177.548 294.097 177.548ZM294.359 176.631C296.028 176.631 296.993 175.469 296.993 173.751V173.326L294.653 173.506C293.164 173.637 292.559 174.291 292.559 175.175C292.559 176.14 293.279 176.631 294.359 176.631ZM302.044 177.351H300.931V170.38H299.344V169.431H300.931V166.928H302.044V169.431H303.631V170.38H302.044V177.351ZM308.344 177.548C306.02 177.548 304.465 175.879 304.465 173.391C304.465 170.92 306.004 169.219 308.262 169.219C310.405 169.219 311.862 170.74 311.862 172.982V173.539H305.562C305.644 175.469 306.658 176.582 308.36 176.582C309.653 176.582 310.487 176.026 310.782 174.979H311.862C311.436 176.648 310.209 177.548 308.344 177.548ZM308.262 170.184C306.773 170.184 305.791 171.166 305.595 172.72H310.733C310.733 171.199 309.751 170.184 308.262 170.184Z" fill="black" fill-opacity="0.5"/>
<path d="M237.705 156.678C234.832 156.678 232.359 156.224 230.286 155.314C228.214 154.369 226.632 153.06 225.541 151.387C224.45 149.678 223.905 147.733 223.905 145.551C223.905 143.478 224.468 141.642 225.596 140.042C226.723 138.442 228.323 137.187 230.396 136.278C232.468 135.369 234.905 134.914 237.705 134.914C240.541 134.914 242.996 135.369 245.068 136.278C247.141 137.187 248.741 138.442 249.868 140.042C251.032 141.642 251.614 143.478 251.614 145.551C251.614 147.733 251.05 149.678 249.923 151.387C248.832 153.06 247.25 154.369 245.177 155.314C243.141 156.224 240.65 156.678 237.705 156.678ZM237.705 151.005C240.214 151.005 242.05 150.46 243.214 149.369C244.414 148.278 245.014 146.914 245.014 145.278C245.014 143.424 244.377 141.933 243.105 140.805C241.868 139.678 240.068 139.114 237.705 139.114C235.414 139.114 233.632 139.678 232.359 140.805C231.123 141.933 230.505 143.424 230.505 145.278C230.505 146.914 231.086 148.278 232.25 149.369C233.45 150.46 235.268 151.005 237.705 151.005ZM237.705 137.314C235.123 137.314 232.85 136.933 230.886 136.169C228.959 135.369 227.45 134.278 226.359 132.896C225.268 131.478 224.723 129.86 224.723 128.042C224.723 125.969 225.268 124.169 226.359 122.642C227.45 121.114 228.959 119.933 230.886 119.096C232.85 118.26 235.123 117.842 237.705 117.842C240.323 117.842 242.614 118.26 244.577 119.096C246.541 119.933 248.068 121.114 249.159 122.642C250.25 124.169 250.796 125.969 250.796 128.042C250.796 129.86 250.25 131.478 249.159 132.896C248.068 134.278 246.541 135.369 244.577 136.169C242.614 136.933 240.323 137.314 237.705 137.314ZM237.705 133.66C239.741 133.66 241.323 133.169 242.45 132.187C243.614 131.205 244.196 129.933 244.196 128.369C244.196 126.914 243.614 125.751 242.45 124.878C241.323 123.969 239.741 123.514 237.705 123.514C235.705 123.514 234.141 123.969 233.014 124.878C231.886 125.751 231.323 126.914 231.323 128.369C231.323 129.933 231.886 131.205 233.014 132.187C234.141 133.169 235.705 133.66 237.705 133.66ZM262.261 156.078C262.479 152.114 263.043 148.242 263.952 144.46C264.897 140.678 266.261 136.933 268.043 133.224C269.824 129.478 272.097 125.733 274.861 121.987L281.515 122.205C278.606 126.06 276.279 129.842 274.533 133.551C272.788 137.224 271.533 140.914 270.77 144.624C270.006 148.296 269.606 152.114 269.57 156.078H262.261ZM254.352 124.605V118.442H281.515V122.205L277.697 124.605H254.352ZM288.341 156.078L311.959 118.442H318.286L294.723 156.078H288.341ZM313.05 156.678C311.304 156.678 309.759 156.296 308.413 155.533C307.068 154.769 306.013 153.714 305.25 152.369C304.523 151.024 304.159 149.478 304.159 147.733C304.159 145.951 304.523 144.387 305.25 143.042C306.013 141.696 307.068 140.66 308.413 139.933C309.759 139.169 311.304 138.787 313.05 138.787C314.832 138.787 316.377 139.169 317.686 139.933C319.032 140.66 320.086 141.696 320.85 143.042C321.613 144.387 321.995 145.951 321.995 147.733C321.995 149.478 321.613 151.024 320.85 152.369C320.086 153.714 319.032 154.769 317.686 155.533C316.377 156.296 314.832 156.678 313.05 156.678ZM313.05 152.042C314.104 152.042 314.977 151.66 315.668 150.896C316.359 150.133 316.704 149.078 316.704 147.733C316.704 146.387 316.359 145.333 315.668 144.569C314.977 143.805 314.104 143.424 313.05 143.424C311.995 143.424 311.123 143.805 310.432 144.569C309.741 145.333 309.395 146.387 309.395 147.733C309.395 149.078 309.741 150.133 310.432 150.896C311.123 151.66 311.995 152.042 313.05 152.042ZM293.577 135.733C291.832 135.733 290.286 135.351 288.941 134.587C287.595 133.824 286.541 132.769 285.777 131.424C285.05 130.078 284.686 128.533 284.686 126.787C284.686 125.005 285.05 123.46 285.777 122.151C286.541 120.805 287.595 119.751 288.941 118.987C290.286 118.224 291.832 117.842 293.577 117.842C295.359 117.842 296.904 118.224 298.213 118.987C299.559 119.751 300.613 120.805 301.377 122.151C302.141 123.46 302.523 125.005 302.523 126.787C302.523 128.533 302.141 130.078 301.377 131.424C300.613 132.769 299.559 133.824 298.213 134.587C296.904 135.351 295.359 135.733 293.577 135.733ZM293.577 131.096C294.632 131.096 295.504 130.714 296.195 129.951C296.886 129.187 297.232 128.133 297.232 126.787C297.232 125.442 296.886 124.387 296.195 123.624C295.504 122.86 294.632 122.478 293.577 122.478C292.523 122.478 291.65 122.86 290.959 123.624C290.268 124.387 289.923 125.442 289.923 126.787C289.923 128.133 290.268 129.187 290.959 129.951C291.65 130.714 292.523 131.096 293.577 131.096Z" fill="#03393C"/>
<defs>
<filter id="filter0_d_39_674" x="0.909088" y="0.181816" width="470.455" height="353.182" filterUnits="userSpaceOnUse" color-interpolation-filters="sRGB">
<feFlood flood-opacity="0" result="BackgroundImageFix"/>
<feColorMatrix in="SourceAlpha" type="matrix" values="0 0 0 0 0 0 0 0 0 0 0 0 0 0 0 0 0 0 127 0" result="hardAlpha"/>
<feOffset dy="27.2727"/>
<feGaussianBlur stdDeviation="54.5455"/>
<feComposite in2="hardAlpha" operator="out"/>
<feColorMatrix type="matrix" values="0 0 0 0 0 0 0 0 0 0 0 0 0 0 0 0 0 0 0.15 0"/>
<feBlend mode="normal" in2="BackgroundImageFix" result="effect1_dropShadow_39_674"/>
<feBlend mode="normal" in="SourceGraphic" in2="effect1_dropShadow_39_674" result="shape"/>
</filter>
</defs>
</svg>
