<svg width="230" height="271" viewBox="0 0 230 271" fill="none" xmlns="http://www.w3.org/2000/svg">
<rect width="230" height="270.855" rx="22.6974" fill="white"/>
<rect x="30.2632" y="142.236" width="22.6974" height="98.3552" rx="11.3487" fill="#4A9274"/>
<rect x="121.053" y="172.5" width="22.6974" height="68.0921" rx="11.3487" fill="#4A9274"/>
<rect x="166.447" y="111.974" width="22.6974" height="128.618" rx="11.3487" fill="#03393C"/>
<rect x="75.658" y="74.1445" width="22.6974" height="166.447" rx="11.3487" fill="#03393C"/>
<path d="M24.5797 38.0784V25.0773H29.3371C31.8429 25.0773 33.3863 26.3484 33.3863 28.4365C33.3863 29.9618 32.7145 30.9968 31.3708 31.5234C32.8779 32.0136 33.6405 33.0668 33.6405 34.6647C33.6405 36.7528 32.0789 38.0784 29.6095 38.0784H24.5797ZM29.3189 26.2394H25.8871V30.9968H29.4824C31.1166 30.9968 32.0426 30.0889 32.0426 28.5455C32.0426 27.0928 31.0621 26.2394 29.3189 26.2394ZM29.6095 32.1407H25.8871V36.8981H29.6095C31.3163 36.8981 32.315 36.0084 32.315 34.5013C32.315 33.0305 31.2982 32.1407 29.6095 32.1407ZM41.9007 29.2899H43.1536V38.0784H42.0641L41.9007 36.5894C41.4104 37.6063 40.1938 38.2963 38.8138 38.2963C36.7438 38.2963 35.618 36.8799 35.618 34.7373V29.2718H36.8891V34.3378C36.8891 36.426 37.8151 37.1705 39.2133 37.1705C40.902 37.1705 41.9007 36.0447 41.9007 33.9565V29.2899ZM44.8417 35.6089H46.0401C46.0401 36.6257 46.8027 37.2613 48.0375 37.2613C49.3993 37.2613 50.1983 36.6802 50.1983 35.736C50.1983 35.0097 49.8351 34.5921 48.8001 34.3378L47.293 33.9565C45.7677 33.5752 45.0233 32.7763 45.0233 31.5778C45.0233 30.0344 46.3125 29.0539 48.2009 29.0539C50.053 29.0539 51.2514 30.0707 51.3059 31.7049H50.0893C50.053 30.6881 49.3448 30.0889 48.1646 30.0889C46.9298 30.0889 46.2398 30.6155 46.2398 31.5597C46.2398 32.2315 46.7119 32.7036 47.6743 32.9397L49.1814 33.321C50.7067 33.7023 51.3967 34.4105 51.3967 35.6815C51.3967 37.2613 50.053 38.2963 48.0556 38.2963C46.0764 38.2963 44.8417 37.2431 44.8417 35.6089ZM54.0767 26.8749C53.5682 26.8749 53.1506 26.4573 53.1506 25.9489C53.1506 25.4405 53.5682 25.0047 54.0767 25.0047C54.5851 25.0047 55.0209 25.4405 55.0209 25.9489C55.0209 26.4573 54.5851 26.8749 54.0767 26.8749ZM53.4593 38.0784V29.2899H54.7122V38.0784H53.4593ZM58.5778 38.0784H57.3249V29.2899H58.4144L58.596 30.8152C59.1771 29.6894 60.3392 29.0539 61.6102 29.0539C64.0252 29.0539 65.0239 30.4884 65.0239 32.7036V38.0784H63.771V32.976C63.771 30.9242 62.8449 30.1978 61.3923 30.1978C59.5947 30.1978 58.5778 31.5052 58.5778 33.4844V38.0784ZM71.2071 38.2963C68.6287 38.2963 66.9037 36.4442 66.9037 33.6842C66.9037 30.9423 68.6105 29.0539 71.1163 29.0539C73.495 29.0539 75.111 30.7426 75.111 33.2302V33.8476H68.1202C68.211 35.9902 69.3368 37.2249 71.2252 37.2249C72.6597 37.2249 73.5858 36.6076 73.9126 35.4455H75.111C74.6389 37.2976 73.2771 38.2963 71.2071 38.2963ZM71.1163 30.1252C69.4639 30.1252 68.3745 31.2147 68.1566 32.9397H73.8581C73.8581 31.251 72.7687 30.1252 71.1163 30.1252ZM76.3697 35.6089H77.5682C77.5682 36.6257 78.3308 37.2613 79.5655 37.2613C80.9274 37.2613 81.7263 36.6802 81.7263 35.736C81.7263 35.0097 81.3632 34.5921 80.3282 34.3378L78.8211 33.9565C77.2958 33.5752 76.5513 32.7763 76.5513 31.5778C76.5513 30.0344 77.8405 29.0539 79.7289 29.0539C81.5811 29.0539 82.7795 30.0707 82.8339 31.7049H81.6174C81.5811 30.6881 80.8729 30.0889 79.6926 30.0889C78.4579 30.0889 77.7679 30.6155 77.7679 31.5597C77.7679 32.2315 78.24 32.7036 79.2024 32.9397L80.7095 33.321C82.2347 33.7023 82.9247 34.4105 82.9247 35.6815C82.9247 37.2613 81.5811 38.2963 79.5837 38.2963C77.6045 38.2963 76.3697 37.2431 76.3697 35.6089ZM84.2429 35.6089H85.4413C85.4413 36.6257 86.2039 37.2613 87.4387 37.2613C88.8005 37.2613 89.5995 36.6802 89.5995 35.736C89.5995 35.0097 89.2363 34.5921 88.2013 34.3378L86.6942 33.9565C85.1689 33.5752 84.4245 32.7763 84.4245 31.5778C84.4245 30.0344 85.7137 29.0539 87.6021 29.0539C89.4542 29.0539 90.6526 30.0707 90.7071 31.7049H89.4905C89.4542 30.6881 88.746 30.0889 87.5658 30.0889C86.331 30.0889 85.641 30.6155 85.641 31.5597C85.641 32.2315 86.1132 32.7036 87.0755 32.9397L88.5826 33.321C90.1079 33.7023 90.7979 34.4105 90.7979 35.6815C90.7979 37.2613 89.4542 38.2963 87.4568 38.2963C85.4776 38.2963 84.2429 37.2431 84.2429 35.6089ZM23.5629 56.6089H24.7613C24.7613 57.6257 25.5239 58.2613 26.7587 58.2613C28.1205 58.2613 28.9195 57.6802 28.9195 56.736C28.9195 56.0097 28.5563 55.5921 27.5213 55.3378L26.0142 54.9565C24.4889 54.5752 23.7445 53.7763 23.7445 52.5778C23.7445 51.0344 25.0337 50.0539 26.9221 50.0539C28.7742 50.0539 29.9726 51.0707 30.0271 52.7049H28.8105C28.7742 51.6881 28.0661 51.0889 26.8858 51.0889C25.6511 51.0889 24.9611 51.6155 24.9611 52.5597C24.9611 53.2315 25.4332 53.7036 26.3955 53.9397L27.9026 54.321C29.4279 54.7023 30.1179 55.4105 30.1179 56.6815C30.1179 58.2613 28.7742 59.2963 26.7768 59.2963C24.7976 59.2963 23.5629 58.2431 23.5629 56.6089ZM38.3542 50.2899H39.6071V59.0784H38.5176L38.3542 57.5894C37.8639 58.6063 36.6474 59.2963 35.2674 59.2963C33.1974 59.2963 32.0716 57.8799 32.0716 55.7373V50.2718H33.3426V55.3378C33.3426 57.426 34.2687 58.1705 35.6668 58.1705C37.3555 58.1705 38.3542 57.0447 38.3542 54.9565V50.2899ZM41.4223 54.7023C41.4223 51.9423 43.111 50.0539 45.6713 50.0539C47.705 50.0539 49.1939 51.2342 49.5389 53.0499H48.286C47.9592 51.8334 46.906 51.1615 45.6894 51.1615C43.91 51.1615 42.6571 52.5234 42.6571 54.6842C42.6571 56.7723 43.8192 58.1705 45.5986 58.1705C46.906 58.1705 47.9592 57.4442 48.3042 56.3184H49.5752C49.1576 58.116 47.596 59.2963 45.5986 59.2963C43.111 59.2963 41.4223 57.4623 41.4223 54.7023ZM55.1593 59.2963C52.5809 59.2963 50.8559 57.4442 50.8559 54.6842C50.8559 51.9423 52.5628 50.0539 55.0685 50.0539C57.4472 50.0539 59.0633 51.7426 59.0633 54.2302V54.8476H52.0725C52.1633 56.9902 53.2891 58.2249 55.1775 58.2249C56.612 58.2249 57.538 57.6076 57.8649 56.4455H59.0633C58.5912 58.2976 57.2293 59.2963 55.1593 59.2963ZM55.0685 51.1252C53.4162 51.1252 52.3267 52.2147 52.1088 53.9397H57.8104C57.8104 52.251 56.7209 51.1252 55.0685 51.1252ZM60.322 56.6089H61.5204C61.5204 57.6257 62.283 58.2613 63.5178 58.2613C64.8796 58.2613 65.6786 57.6802 65.6786 56.736C65.6786 56.0097 65.3154 55.5921 64.2804 55.3378L62.7733 54.9565C61.248 54.5752 60.5036 53.7763 60.5036 52.5778C60.5036 51.0344 61.7928 50.0539 63.6812 50.0539C65.5333 50.0539 66.7317 51.0707 66.7862 52.7049H65.5696C65.5333 51.6881 64.8252 51.0889 63.6449 51.0889C62.4102 51.0889 61.7202 51.6155 61.7202 52.5597C61.7202 53.2315 62.1923 53.7036 63.1546 53.9397L64.6617 54.321C66.187 54.7023 66.877 55.4105 66.877 56.6815C66.877 58.2613 65.5333 59.2963 63.5359 59.2963C61.5567 59.2963 60.322 58.2431 60.322 56.6089ZM68.1951 56.6089H69.3936C69.3936 57.6257 70.1562 58.2613 71.3909 58.2613C72.7528 58.2613 73.5517 57.6802 73.5517 56.736C73.5517 56.0097 73.1886 55.5921 72.1536 55.3378L70.6465 54.9565C69.1212 54.5752 68.3767 53.7763 68.3767 52.5778C68.3767 51.0344 69.6659 50.0539 71.5544 50.0539C73.4065 50.0539 74.6049 51.0707 74.6594 52.7049H73.4428C73.4065 51.6881 72.6983 51.0889 71.518 51.0889C70.2833 51.0889 69.5933 51.6155 69.5933 52.5597C69.5933 53.2315 70.0654 53.7036 71.0278 53.9397L72.5349 54.321C74.0601 54.7023 74.7501 55.4105 74.7501 56.6815C74.7501 58.2613 73.4065 59.2963 71.4091 59.2963C69.4299 59.2963 68.1951 58.2431 68.1951 56.6089Z" fill="black" fill-opacity="0.5"/>
<path d="M144.581 48.4808C141.893 48.4808 140.15 46.774 140.15 44.1593H141.912C141.912 45.8479 142.947 46.8829 144.617 46.8829C146.397 46.8829 147.541 45.7027 147.541 43.9232C147.541 42.2345 146.469 40.9816 144.635 40.9816C143.528 40.9816 142.511 41.5082 141.912 42.2527L140.405 41.8714L142.002 35.1348H148.576V36.769H143.292L142.42 40.2553C143.11 39.7287 143.982 39.4564 144.962 39.4564C147.631 39.4564 149.356 41.3266 149.356 43.8506C149.356 46.5743 147.413 48.4808 144.581 48.4808ZM160.684 45.6119H159.122V48.2629H157.415V45.6119H150.624V44.0321L156.816 35.1348H159.122V44.0321H160.684V45.6119ZM152.549 44.0321H157.415V37.0232L152.549 44.0321ZM163.666 48.4808C162.958 48.4808 162.359 47.8998 162.359 47.2098C162.359 46.5016 162.958 45.9206 163.666 45.9206C164.356 45.9206 164.955 46.5016 164.955 47.2098C164.955 47.8998 164.356 48.4808 163.666 48.4808ZM168.189 39.2929L171.258 35.1348H173.328L170.041 39.4927C170.495 39.3111 170.967 39.2203 171.421 39.2203C174.145 39.2203 175.979 41.1814 175.979 43.7779C175.979 46.5198 173.909 48.4808 171.203 48.4808C168.48 48.4808 166.373 46.429 166.373 43.7779C166.373 42.2164 166.846 41.1269 168.189 39.2929ZM168.189 43.7961C168.189 45.5937 169.424 46.8829 171.203 46.8829C172.947 46.8829 174.181 45.5937 174.181 43.7961C174.181 41.9985 172.947 40.7274 171.203 40.7274C169.424 40.7274 168.189 41.9985 168.189 43.7961ZM181.449 41.4719H180.141V40.2916L183.864 36.7145H177.962V35.1348H186.115V36.5693L182.52 40.0011C184.753 40.2735 186.442 41.7806 186.442 44.1411C186.442 46.7922 184.445 48.4808 181.776 48.4808C179.197 48.4808 177.345 46.9011 177.345 44.1774H179.106C179.106 45.8843 180.16 46.8829 181.812 46.8829C183.519 46.8829 184.626 45.7935 184.626 44.1048C184.626 42.525 183.537 41.4719 181.449 41.4719ZM194.511 38.2398C194.511 40.1827 193.131 41.5808 191.188 41.5808C189.263 41.5808 187.883 40.1827 187.883 38.2398C187.883 36.2787 189.263 34.8806 191.188 34.8806C193.131 34.8806 194.511 36.2787 194.511 38.2398ZM201.429 35.1529L191.46 48.2629H189.717L199.686 35.1529H201.429ZM193.113 38.2398C193.113 37.0595 192.332 36.2424 191.188 36.2424C190.062 36.2424 189.281 37.0595 189.281 38.2398C189.281 39.4019 190.062 40.219 191.188 40.219C192.314 40.219 193.113 39.4019 193.113 38.2398ZM203.299 45.1579C203.299 47.1008 201.901 48.499 199.976 48.499C198.052 48.499 196.653 47.1008 196.653 45.1579C196.653 43.1969 198.052 41.8169 199.976 41.8169C201.901 41.8169 203.299 43.1969 203.299 45.1579ZM201.883 45.1579C201.883 43.9777 201.12 43.1606 199.976 43.1606C198.851 43.1606 198.07 43.9777 198.07 45.1579C198.07 46.32 198.851 47.1371 199.976 47.1371C201.102 47.1371 201.883 46.32 201.883 45.1579Z" fill="#03393C"/>
</svg>
