<svg width="38" height="39" viewBox="0 0 38 39" fill="none" xmlns="http://www.w3.org/2000/svg">
<path fill-rule="evenodd" clip-rule="evenodd" d="M16.6175 1.37793C18.0732 0.650065 19.7866 0.650066 21.2424 1.37793L35 8.25673C37.4253 9.46937 37.4252 12.9304 35 14.143L21.2424 21.0218C19.7866 21.7497 18.0732 21.7497 16.6175 21.0218L2.85985 14.143C0.434568 12.9304 0.434582 9.46936 2.85985 8.25673L16.6175 1.37793ZM0.719553 29.4294C1.03587 28.7177 1.86926 28.3971 2.58098 28.7134L17.9763 35.5558C18.5841 35.8259 19.2778 35.8259 19.8855 35.5558L35.2808 28.7134C35.9926 28.3971 36.8259 28.7177 37.1423 29.4294C37.4586 30.1411 37.138 30.9745 36.4263 31.2908L21.031 38.1332C19.694 38.7274 18.1678 38.7274 16.8308 38.1332L1.43549 31.2908C0.723768 30.9745 0.403234 30.1411 0.719553 29.4294ZM2.58098 20.2528C1.86926 19.9364 1.03587 20.257 0.719553 20.9687C0.403234 21.6804 0.723768 22.5138 1.43549 22.8301L16.8308 29.6725C18.1678 30.2667 19.694 30.2667 21.031 29.6725L36.4263 22.8301C37.138 22.5138 37.4586 21.6804 37.1423 20.9687C36.8259 20.257 35.9926 19.9364 35.2808 20.2528L19.8855 27.0951C19.2778 27.3652 18.5841 27.3652 17.9763 27.0951L2.58098 20.2528Z" fill="white"/>
</svg>
